<svg width="48" height="48" viewBox="0 0 48 48" fill="none" xmlns="http://www.w3.org/2000/svg">
<g filter="url(#filter0_d_212_877)">
<circle cx="23.8936" cy="25.1064" r="19.8936" fill="#F3F3F4"/>
</g>
<path d="M24.9975 17.2859C25.7341 16.2074 26.4884 15.2978 27.1687 14.6686C27.5062 14.3407 27.891 14.0642 28.3105 13.8482C28.6595 13.6825 29.2112 13.5216 29.729 13.8163C30.3192 14.1556 30.4157 14.8199 30.4206 15.2436C30.4254 15.7279 30.3176 16.3014 30.1423 16.9068C29.8271 18.0012 29.2481 19.3409 28.4778 20.7332L33.7465 25.952C34.192 26.3932 34.1791 26.997 34.0971 27.4143C34.0086 27.8652 33.7963 28.359 33.5181 28.8528C32.9584 29.8517 32.0385 31.021 30.903 32.1472C29.766 33.2735 28.5855 34.1831 27.5772 34.7375C27.0786 35.0131 26.58 35.2233 26.1249 35.311C25.7035 35.3906 25.0956 35.405 24.6485 34.9637L15.6181 26.0189C15.4283 26.4283 15.4701 26.8345 15.5377 27.5147C15.5859 27.9799 15.647 28.5741 15.6551 29.3881V29.584H15.6503C15.6165 29.9821 15.4331 30.3531 15.1363 30.6235C14.8394 30.8938 14.4509 31.0439 14.0476 31.0439C13.6444 31.0439 13.2558 30.8938 12.959 30.6235C12.6621 30.3531 12.4787 29.9821 12.445 29.584H12.4402V29.4932C12.4387 29.431 12.4408 29.3688 12.4466 29.3069C12.535 27.3156 13.5724 24.9452 15.438 23.7408C15.538 23.5043 15.6513 23.2735 15.7773 23.0495C16.3386 22.0522 17.2569 20.8829 18.394 19.7567C19.531 18.6304 20.7115 17.7192 21.7199 17.1648C22.2184 16.8908 22.717 16.6806 23.1721 16.5913C23.5935 16.5117 24.2014 16.4989 24.6485 16.9402L24.9975 17.2843V17.2859ZM28.2655 15.8315C27.6527 16.3986 26.9081 17.3002 26.1571 18.4313L27.2893 19.5544C27.9036 18.3962 28.3507 17.3209 28.5968 16.4671C28.7046 16.118 28.7752 15.7587 28.8075 15.395C28.6611 15.4922 28.4794 15.6339 28.2655 15.8315ZM27.6318 22.1478C26.7634 23.5051 25.8515 24.6441 25.0474 25.3864C24.9701 25.4578 24.8793 25.5133 24.7803 25.5499C24.6814 25.5865 24.5761 25.6035 24.4705 25.5998C24.3649 25.5961 24.2611 25.5718 24.165 25.5284C24.0689 25.4849 23.9823 25.4232 23.9103 25.3466C23.8383 25.27 23.7822 25.1802 23.7452 25.0821C23.7083 24.9841 23.6912 24.8798 23.6949 24.7752C23.6987 24.6706 23.7231 24.5678 23.767 24.4726C23.8109 24.3774 23.8732 24.2917 23.9505 24.2203C24.6791 23.5481 25.5861 22.4107 26.4658 20.9913L24.716 19.2581C24.6292 19.4492 24.5311 19.6452 24.4217 19.8395C23.8605 20.8383 22.9421 22.0076 21.8051 23.1339C20.6697 24.2602 19.4892 25.1698 18.4792 25.7241C18.283 25.8325 18.0868 25.9312 17.8922 26.0157L25.71 33.761C25.7467 33.7578 25.7832 33.7525 25.8193 33.745C26.0397 33.702 26.3693 33.5793 26.7971 33.3436C27.6399 32.8784 28.7045 32.0692 29.766 31.0178C30.8275 29.9664 31.6445 28.915 32.1141 28.077C32.3505 27.6549 32.4759 27.3283 32.5177 27.1101C32.5253 27.0743 32.5307 27.0381 32.5338 27.0018L27.6318 22.1478ZM23.0161 19.0653C23.1826 18.7847 23.3128 18.4844 23.4037 18.1716C23.1866 18.2242 22.8826 18.3469 22.4999 18.5555C21.6571 19.0207 20.5925 19.83 19.531 20.8814C18.8073 21.5982 18.1961 22.3167 17.733 22.9682C18.3086 22.9291 18.8868 22.978 19.4474 23.1132C19.8716 22.7633 20.2794 22.3944 20.6697 22.0076C21.7311 20.9562 22.5465 19.9016 23.0145 19.0653H23.0161Z" fill="#3D3D3D"/>
<defs>
<filter id="filter0_d_212_877" x="0" y="0.212769" width="47.7872" height="47.7872" filterUnits="userSpaceOnUse" color-interpolation-filters="sRGB">
<feFlood flood-opacity="0" result="BackgroundImageFix"/>
<feColorMatrix in="SourceAlpha" type="matrix" values="0 0 0 0 0 0 0 0 0 0 0 0 0 0 0 0 0 0 127 0" result="hardAlpha"/>
<feOffset dy="-1"/>
<feGaussianBlur stdDeviation="2"/>
<feComposite in2="hardAlpha" operator="out"/>
<feColorMatrix type="matrix" values="0 0 0 0 0 0 0 0 0 0 0 0 0 0 0 0 0 0 0.25 0"/>
<feBlend mode="normal" in2="BackgroundImageFix" result="effect1_dropShadow_212_877"/>
<feBlend mode="normal" in="SourceGraphic" in2="effect1_dropShadow_212_877" result="shape"/>
</filter>
</defs>
</svg>
