<svg width="25" height="25" viewBox="0 0 25 25" fill="none" xmlns="http://www.w3.org/2000/svg">
<path d="M14.1525 4.13403C14.9826 2.90696 15.8327 1.87203 16.5994 1.15609C16.9798 0.783008 17.4135 0.468437 17.8863 0.22265C18.2796 0.0341503 18.9013 -0.148912 19.4849 0.1864C20.1501 0.572463 20.2588 1.32828 20.2643 1.8104C20.2697 2.3614 20.1483 3.0139 19.9507 3.70265C19.5955 4.94784 18.943 6.47215 18.0748 8.05628L24.0125 13.994C24.5146 14.4961 24.5001 15.183 24.4076 15.6579C24.308 16.1708 24.0687 16.7327 23.7551 17.2946C23.1244 18.431 22.0876 19.7614 20.808 21.0428C19.5266 22.3243 18.1962 23.3592 17.0598 23.99C16.4979 24.3035 15.936 24.5428 15.4231 24.6425C14.9482 24.7331 14.2631 24.7494 13.7592 24.2473L3.58202 14.0702C3.36814 14.536 3.41527 14.9982 3.49139 15.7721C3.54577 16.3013 3.61464 16.9774 3.62371 17.9036V18.1265H3.61827C3.58028 18.5794 3.37353 19.0015 3.03901 19.3091C2.70448 19.6168 2.26659 19.7875 1.81211 19.7875C1.35764 19.7875 0.919743 19.6168 0.585217 19.3091C0.250691 19.0015 0.043948 18.5794 0.00595707 18.1265H0.000519214V18.0232C-0.00116627 17.9524 0.00125239 17.8816 0.00776714 17.8112C0.107455 15.5455 1.27652 12.8485 3.37902 11.4783C3.49175 11.2092 3.61943 10.9465 3.76146 10.6917C4.39402 9.55703 5.42895 8.22665 6.71039 6.94521C7.99183 5.66378 9.32221 4.62703 10.4586 3.99628C11.0205 3.68453 11.5824 3.44528 12.0953 3.34378C12.5702 3.25315 13.2553 3.23865 13.7592 3.74071L14.1525 4.13221V4.13403ZM17.8355 2.47921C17.145 3.12446 16.3058 4.15034 15.4593 5.43721L16.7353 6.71503C17.4277 5.39734 17.9316 4.1739 18.2089 3.2024C18.3304 2.8052 18.41 2.39636 18.4463 1.98259C18.2814 2.09315 18.0766 2.25446 17.8355 2.47921ZM17.1214 9.66578C16.1426 11.21 15.115 12.506 14.2087 13.3506C14.1216 13.4318 14.0193 13.495 13.9078 13.5366C13.7963 13.5783 13.6776 13.5975 13.5586 13.5933C13.4396 13.5891 13.3226 13.5615 13.2143 13.5121C13.106 13.4627 13.0084 13.3924 12.9273 13.3053C12.8461 13.2182 12.7829 13.1159 12.7412 13.0044C12.6996 12.8928 12.6803 12.7742 12.6845 12.6552C12.6887 12.5362 12.7163 12.4192 12.7658 12.3109C12.8152 12.2025 12.8855 12.105 12.9726 12.0238C13.7936 11.259 14.8159 9.96484 15.8073 8.3499L13.8353 6.3779C13.7375 6.5954 13.6269 6.81834 13.5036 7.03946C12.8711 8.1759 11.8361 9.50628 10.5547 10.7877C9.27508 12.0692 7.94471 13.1041 6.80646 13.7348C6.58533 13.8581 6.36421 13.9705 6.14489 14.0665L14.9555 22.8789C14.9969 22.8753 15.038 22.8693 15.0787 22.8608C15.327 22.8118 15.6986 22.6723 16.1807 22.404C17.1305 21.8748 18.3303 20.954 19.5266 19.7578C20.7228 18.5615 21.6436 17.3653 22.1728 16.4119C22.4393 15.9316 22.5806 15.56 22.6278 15.3117C22.6363 15.271 22.6423 15.2299 22.6459 15.1885L17.1214 9.66578V9.66578ZM11.9195 6.15859C12.1071 5.83928 12.2539 5.49767 12.3563 5.14178C12.1116 5.20159 11.7691 5.34115 11.3377 5.57859C10.388 6.10784 9.18808 7.02859 7.99183 8.22484C7.17621 9.04046 6.48746 9.8579 5.96546 10.5992C6.61415 10.5548 7.26581 10.6104 7.89758 10.7642C8.37566 10.3661 8.83531 9.94633 9.27508 9.50628C10.4713 8.31003 11.3903 7.11015 11.9177 6.15859H11.9195Z" fill="#3D3D3D"/>
</svg>
