<svg width="109" height="109" viewBox="0 0 109 109" fill="none" xmlns="http://www.w3.org/2000/svg">
<path d="M109 54.5C109 84.5995 84.5995 109 54.5 109C24.4005 109 0 84.5995 0 54.5C0 24.4005 24.4005 0 54.5 0C84.5995 0 109 24.4005 109 54.5Z" fill="url(#paint0_linear_250_885)"/>
<path d="M55 33C42.856 33 33 42.856 33 55C33 67.144 42.856 77 55 77C67.144 77 77 67.144 77 55C77 42.856 67.144 33 55 33ZM55 64.9C49.522 64.9 45.1 60.478 45.1 55C45.1 49.522 49.522 45.1 55 45.1C60.478 45.1 64.9 49.522 64.9 55C64.9 60.478 60.478 64.9 55 64.9ZM55 52.8C53.79 52.8 52.8 53.79 52.8 55C52.8 56.21 53.79 57.2 55 57.2C56.21 57.2 57.2 56.21 57.2 55C57.2 53.79 56.21 52.8 55 52.8Z" fill="white"/>
<defs>
<linearGradient id="paint0_linear_250_885" x1="54.5" y1="0" x2="54.5" y2="109" gradientUnits="userSpaceOnUse">
<stop stop-color="#FE9898"/>
<stop offset="1" stop-color="#FF6B6B"/>
</linearGradient>
</defs>
</svg>
