<svg width="40" height="40" viewBox="0 0 40 40" fill="none" xmlns="http://www.w3.org/2000/svg">
<circle cx="20" cy="20" r="19" fill="#F3F3F4" stroke="#8F6BCB" stroke-width="2"/>
<path d="M26.0842 14.1611C24.873 13.6245 23.5747 13.2278 22.217 13.0023C22.2049 13 22.1924 13.0015 22.1812 13.0065C22.17 13.0115 22.1607 13.0198 22.1545 13.0303C21.9882 13.3173 21.803 13.6914 21.6732 13.9869C20.2332 13.7755 18.7693 13.7755 17.3294 13.9869C17.1848 13.6594 17.0217 13.34 16.841 13.0303C16.8348 13.0197 16.8256 13.0112 16.8144 13.0059C16.8032 13.0006 16.7907 12.9988 16.7784 13.0007C15.4216 13.2263 14.1233 13.6229 12.9113 14.1603C12.9008 14.1646 12.892 14.172 12.8859 14.1813C10.4223 17.7394 9.74705 21.2096 10.0788 24.6363C10.0797 24.6447 10.0823 24.6528 10.0865 24.6602C10.0908 24.6675 10.0965 24.674 10.1033 24.6791C11.5412 25.7076 13.1451 26.491 14.8476 26.9967C14.8595 27.0003 14.8722 27.0003 14.884 26.9967C14.8959 26.9931 14.9064 26.986 14.9141 26.9765C15.2805 26.4951 15.6051 25.9844 15.8847 25.4498C15.8885 25.4425 15.8908 25.4345 15.8912 25.4262C15.8917 25.418 15.8903 25.4098 15.8872 25.4021C15.8841 25.3944 15.8794 25.3875 15.8734 25.3818C15.8673 25.376 15.8601 25.3717 15.8522 25.3689C15.3408 25.1797 14.8453 24.9514 14.3703 24.6861C14.3617 24.6813 14.3545 24.6745 14.3493 24.6663C14.3441 24.6581 14.3411 24.6488 14.3404 24.6392C14.3398 24.6295 14.3416 24.6199 14.3457 24.6111C14.3498 24.6023 14.3561 24.5947 14.3639 24.5889C14.4637 24.5165 14.5634 24.4411 14.6584 24.3657C14.667 24.3589 14.6773 24.3546 14.6882 24.3532C14.6991 24.3518 14.7101 24.3534 14.7202 24.3579C17.8289 25.7298 21.1958 25.7298 24.2682 24.3579C24.2782 24.3532 24.2894 24.3513 24.3005 24.3526C24.3115 24.3538 24.322 24.3581 24.3307 24.3649C24.4257 24.4411 24.5247 24.5165 24.6252 24.5889C24.6331 24.5946 24.6395 24.6021 24.6437 24.6108C24.6479 24.6195 24.6499 24.6291 24.6494 24.6387C24.649 24.6484 24.6461 24.6577 24.641 24.666C24.636 24.6743 24.6289 24.6812 24.6205 24.6861C24.1471 24.9536 23.6547 25.1799 23.1377 25.3681C23.1298 25.371 23.1225 25.3754 23.1165 25.3812C23.1104 25.387 23.1057 25.394 23.1027 25.4018C23.0996 25.4095 23.0982 25.4178 23.0987 25.4261C23.0991 25.4343 23.1014 25.4424 23.1053 25.4498C23.3902 25.9841 23.7164 26.4927 24.075 26.9757C24.0825 26.9856 24.0929 26.993 24.1048 26.9969C24.1167 27.0008 24.1295 27.001 24.1415 26.9975C25.847 26.4932 27.4534 25.7094 28.893 24.6791C28.9 24.6743 28.9059 24.668 28.9102 24.6608C28.9146 24.6535 28.9174 24.6455 28.9183 24.6371C29.3141 20.6753 28.2549 17.2331 26.1087 14.1829C26.1035 14.173 26.0948 14.1652 26.0842 14.1611ZM16.3494 22.5497C15.4136 22.5497 14.6418 21.7183 14.6418 20.6987C14.6418 19.6783 15.3986 18.8477 16.3494 18.8477C17.3073 18.8477 18.072 19.6853 18.0569 20.6987C18.0569 21.7191 17.3001 22.5497 16.3494 22.5497ZM22.6627 22.5497C21.7262 22.5497 20.9551 21.7183 20.9551 20.6987C20.9551 19.6783 21.7112 18.8477 22.6627 18.8477C23.6206 18.8477 24.3853 19.6853 24.3703 20.6987C24.3703 21.7191 23.6214 22.5497 22.6627 22.5497Z" fill="#8F6BCB"/>
</svg>
