<svg width="109" height="109" viewBox="0 0 109 109" fill="none" xmlns="http://www.w3.org/2000/svg">
<path d="M109 54.5C109 84.5995 84.5995 109 54.5 109C24.4005 109 0 84.5995 0 54.5C0 24.4005 24.4005 0 54.5 0C84.5995 0 109 24.4005 109 54.5Z" fill="url(#paint0_linear_248_884)"/>
<path d="M53.8308 67.32C50.5284 67.1638 47.4131 65.7408 45.1319 63.3466C42.8508 60.9525 41.5791 57.7711 41.5812 54.4634C41.5812 47.359 47.352 41.5854 54.4529 41.5854C61.3608 41.5854 66.9815 47.0156 67.3033 53.841L62.7981 52.4888C62.4475 51.0009 61.706 49.6337 60.6504 48.5285C59.5948 47.4233 58.2633 46.6203 56.7936 46.2023C55.3238 45.7844 53.7692 45.7667 52.2904 46.1512C50.8116 46.5357 49.4622 47.3083 48.3818 48.3893C47.3014 49.4702 46.5291 50.8202 46.1448 52.2998C45.7605 53.7793 45.7782 55.3347 46.1959 56.8052C46.6136 58.2756 47.4163 59.6078 48.5209 60.6639C49.6256 61.72 50.9921 62.4619 52.4793 62.8127L53.8308 67.32ZM75.9059 54.4634C75.9059 55.1073 75.8844 55.7512 75.8201 56.3951L71.5939 55.1288C71.6153 54.9141 71.6153 54.678 71.6153 54.4634C71.6153 44.9766 63.9352 37.2927 54.4529 37.2927C44.9707 37.2927 37.2906 44.9766 37.2906 54.4634C37.2906 63.9502 44.9707 71.6341 54.4529 71.6341C54.6675 71.6341 54.9035 71.6341 55.118 71.6127L56.3837 75.841C55.7401 75.9054 55.0965 75.9268 54.4529 75.9268C42.6109 75.9268 33 66.3112 33 54.4634C33 42.6156 42.6109 33 54.4529 33C66.295 33 75.9059 42.6156 75.9059 54.4634ZM67.8181 63.6068L75.9059 60.9024L54.4529 54.4634L60.8888 75.9268L63.5919 67.8351L72.7523 77L77 72.7502L67.8181 63.6068Z" fill="white"/>
<defs>
<linearGradient id="paint0_linear_248_884" x1="54.5" y1="0" x2="54.5" y2="109" gradientUnits="userSpaceOnUse">
<stop stop-color="#A7CBFF"/>
<stop offset="1" stop-color="#3B82E8"/>
</linearGradient>
</defs>
</svg>
