<svg width="40" height="40" viewBox="0 0 40 40" fill="none" xmlns="http://www.w3.org/2000/svg">
<circle cx="20" cy="20" r="19" fill="#F3F3F4" stroke="#4D96FF" stroke-width="2"/>
<path d="M29 13.8322C28.3013 14.1418 27.5507 14.351 26.7616 14.4455C27.5758 13.9583 28.1849 13.1916 28.4753 12.2883C27.7104 12.7427 26.8732 13.0625 26.0001 13.2339C25.413 12.607 24.6354 12.1915 23.7879 12.0519C22.9405 11.9123 22.0707 12.0563 21.3135 12.4617C20.5563 12.8671 19.9542 13.5111 19.6005 14.2938C19.2469 15.0765 19.1616 15.954 19.3577 16.7902C17.8078 16.7124 16.2915 16.3095 14.9073 15.6077C13.523 14.906 12.3019 13.921 11.323 12.7167C10.9882 13.2941 10.7958 13.9635 10.7958 14.6765C10.7954 15.3183 10.9535 15.9503 11.2559 16.5163C11.5584 17.0824 11.9959 17.5651 12.5296 17.9215C11.9106 17.9018 11.3053 17.7346 10.764 17.4337V17.4839C10.7639 18.384 11.0753 19.2565 11.6453 19.9532C12.2152 20.6499 13.0087 21.128 13.891 21.3063C13.3168 21.4617 12.7148 21.4846 12.1305 21.3732C12.3794 22.1478 12.8643 22.8251 13.5173 23.3103C14.1703 23.7956 14.9587 24.0645 15.7721 24.0794C14.3913 25.1634 12.686 25.7514 10.9305 25.7488C10.6195 25.7489 10.3088 25.7307 10 25.6944C11.7819 26.8401 13.8562 27.4481 15.9746 27.4458C23.1459 27.4458 27.0662 21.5063 27.0662 16.3551C27.0662 16.1877 27.062 16.0187 27.0545 15.8513C27.817 15.2998 28.4753 14.617 28.9983 13.8347L29 13.8322Z" fill="#4D96FF"/>
</svg>
