<svg width="109" height="109" viewBox="0 0 109 109" fill="none" xmlns="http://www.w3.org/2000/svg">
<path d="M109 54.5C109 84.5995 84.5995 109 54.5 109C24.4005 109 0 84.5995 0 54.5C0 24.4005 24.4005 0 54.5 0C84.5995 0 109 24.4005 109 54.5Z" fill="url(#paint0_linear_250_886)"/>
<path d="M69.4753 52.6544C69.2178 52.5958 68.9826 52.4641 68.7979 52.2753C68.6132 52.0865 68.4867 51.8484 68.4338 51.5897C67.7738 48.4375 66.3326 45.733 64.2073 43.6834C61.7337 41.3054 58.4312 39.9843 55 40.0001C51.9492 40.0001 49.1356 41.0048 46.8634 42.9048C45.3118 44.2154 44.0777 45.8608 43.2541 47.7173C43.1652 47.9165 43.0303 48.0917 42.8604 48.2284C42.6905 48.3651 42.4905 48.4595 42.277 48.5037C39.9566 48.9866 37.8881 49.9938 36.3318 51.4144C34.1507 53.3961 33 56.1066 33 59.2501C33 62.3439 34.2358 65.1695 36.4796 67.2071C38.6409 69.1699 41.5559 70.2501 44.6875 70.2501H67.0312C69.813 70.2501 72.2073 69.5137 73.957 68.1215C75.9481 66.5359 77 64.1821 77 61.3126C77 56.3652 73.3906 53.5284 69.4753 52.6544ZM61.2941 51.8862L52.03 62.8862C51.9031 63.0368 51.7454 63.1583 51.5675 63.2427C51.3896 63.3271 51.1956 63.3722 50.9988 63.3751H50.9755C50.7831 63.3752 50.5928 63.3348 50.4169 63.2566C50.241 63.1785 50.0836 63.0643 49.9546 62.9214L46.0101 58.5498C45.5142 58.0006 45.5099 57.1464 46.0359 56.6248C46.1679 56.4935 46.3252 56.3904 46.4983 56.3218C46.6713 56.2532 46.8565 56.2204 47.0426 56.2254C47.2287 56.2305 47.4119 56.2733 47.5809 56.3512C47.75 56.4292 47.9015 56.5407 48.0262 56.6789L50.9395 59.9084L59.1895 50.1115C59.3058 49.9734 59.4482 49.8596 59.6086 49.7765C59.7689 49.6934 59.9441 49.6427 60.124 49.6273C60.304 49.6119 60.4852 49.6321 60.6574 49.6867C60.8295 49.7413 60.9892 49.8293 61.1273 49.9457C61.2655 50.062 61.3793 50.2045 61.4624 50.3648C61.5455 50.5252 61.5962 50.7003 61.6116 50.8803C61.627 51.0602 61.6068 51.2415 61.5522 51.4136C61.4976 51.5857 61.4096 51.7454 61.2932 51.8836L61.2941 51.8862Z" fill="white"/>
<defs>
<linearGradient id="paint0_linear_250_886" x1="54.5" y1="0" x2="54.5" y2="109" gradientUnits="userSpaceOnUse">
<stop stop-color="#92F89F"/>
<stop offset="1" stop-color="#4AAF57"/>
</linearGradient>
</defs>
</svg>
