<svg width="109" height="109" viewBox="0 0 109 109" fill="none" xmlns="http://www.w3.org/2000/svg">
<circle cx="54.5" cy="54.5" r="54.5" fill="url(#paint0_linear_250_887)"/>
<path d="M49.7664 30C49.2979 30 48.8486 30.1865 48.5174 30.5185C48.1861 30.8504 48 31.3007 48 31.7701V72.2299C48 72.6993 48.1861 73.1496 48.5174 73.4815C48.8486 73.8135 49.2979 74 49.7664 74C50.2348 74 50.6841 73.8135 51.0154 73.4815C51.3466 73.1496 51.5327 72.6993 51.5327 72.2299V53.7701H73.2336C73.7021 53.7701 74.1514 53.5836 74.4826 53.2517C74.8139 52.9197 75 52.4695 75 52V31.7701C75 31.3007 74.8139 30.8504 74.4826 30.5185C74.1514 30.1865 73.7021 30 73.2336 30H50.0187C49.9759 30.0001 49.9332 30.0018 49.8905 30.0051C49.8492 30.0019 49.8078 30.0002 49.7664 30V30Z" fill="white"/>
<path d="M43.002 68C37.705 68.7746 34 70.6267 34 73.3521C34 77.0233 40.1905 80 49 80C57.8095 80 64 77.0238 64 73.3521C64 70.6262 60.295 68.7746 54.9985 68.0005L54.2645 69.2927C58.257 69.865 61 71.0693 61 72.4659C61 74.424 55.6275 76.0114 49 76.0114C42.3725 76.0114 37 74.424 37 72.4659C36.9995 71.0739 39.725 69.8713 43.7295 69.2963C43.4875 68.864 43.2445 68.4328 43.002 68V68Z" fill="white"/>
<defs>
<linearGradient id="paint0_linear_250_887" x1="54.5" y1="0" x2="54.5" y2="109" gradientUnits="userSpaceOnUse">
<stop stop-color="#FFE98D"/>
<stop offset="1" stop-color="#EDC935"/>
</linearGradient>
</defs>
</svg>
