<svg width="1432" height="261" viewBox="0 0 1432 261" fill="none" xmlns="http://www.w3.org/2000/svg">
<path d="M35.3116 261C54.739 261 70.488 245.228 70.488 225.772C70.488 206.315 54.739 190.543 35.3116 190.543C15.8842 190.543 0.135223 206.315 0.135223 225.772C0.135223 245.228 15.8842 261 35.3116 261Z" fill="#FF6B6B"/>
<path d="M106.776 96.0466H35.0487C15.7665 96.0466 0.135223 111.701 0.135223 131.012C0.135223 150.322 15.7665 165.977 35.0487 165.977H106.776C126.059 165.977 141.69 150.322 141.69 131.012C141.69 111.701 126.059 96.0466 106.776 96.0466Z" fill="#6CCB77"/>
<path d="M177.317 1.15121H34.2072C15.3898 1.15121 0.135223 16.4283 0.135223 35.2735V36.959C0.135223 55.8042 15.3898 71.0813 34.2072 71.0813H177.317C196.134 71.0813 211.389 55.8042 211.389 36.959V35.2735C211.389 16.4283 196.134 1.15121 177.317 1.15121Z" fill="#4D96FF"/>
<path d="M464.048 225.817H441.644V117.468H368.578V225.817H346.174V117.468H317.159V96.8066H346.174V75.1293C346.174 44.9421 361.952 28.9456 392.004 28.9456C404.476 28.9456 415.423 31.7823 423.312 38.4939L412.62 56.8153C407.789 52.9404 400.404 50.6229 391.493 50.6229C375.198 50.6229 368.578 57.8462 368.578 75.1293V96.8066H464.048V225.817ZM436.444 53.3693C436.444 44.1521 444.544 36.6053 454.431 36.6053C464.318 36.6053 472.417 44.1295 472.417 53.3693C472.417 62.609 464.311 70.1257 454.431 70.1257C444.551 70.1257 436.444 62.5789 436.444 53.3693Z" fill="#3D3D3D"/>
<path d="M632.785 142.862V225.817H607.586V145.541C607.586 125.737 592.988 111.02 570.944 111.02C550.328 111.02 527.428 123.6 527.428 147.949V225.817H502.237V92.0212H525.347L525.708 112.096C535.73 97.3784 553.506 88.545 574.378 88.545C607.586 88.545 632.785 110.756 632.785 142.862Z" fill="#3D3D3D"/>
<path d="M841.619 207.247C857.585 207.247 872.423 201.626 883.52 191.19L898.621 208.586C884.654 221.43 864.422 229.195 841.905 229.195C798.584 229.195 766.661 200.558 766.661 158.001C766.661 117.054 796.593 88.4171 840.199 88.4171C884.94 88.4171 907.457 118.657 907.457 149.702C907.361 155.907 906.694 162.091 905.466 168.174H792.882C796.871 191.995 815.399 207.247 841.619 207.247ZM793.167 146.76H880.951C880.673 127.197 866.991 110.358 839.628 110.358C814.55 110.358 797.442 124.548 793.167 146.76Z" fill="#3D3D3D"/>
<path d="M1113.08 207.247C1129.1 207.247 1143.98 201.626 1155.15 191.19L1171.68 206.758C1157.66 219.602 1135.98 229.195 1113.38 229.195C1069.88 229.195 1037.83 200.558 1037.83 158.001C1037.83 117.054 1067.88 88.4171 1111.66 88.4171C1156.58 88.4171 1179.18 118.657 1179.18 149.702C1179.09 155.908 1178.42 162.092 1177.18 168.174H1064.15C1068.15 191.995 1086.76 207.247 1113.08 207.247ZM1064.44 146.76H1152.56C1152.28 127.197 1138.55 110.358 1111.08 110.358C1085.9 110.358 1068.73 124.548 1064.44 146.76Z" fill="#3D3D3D"/>
<path d="M1035.76 93.8947L1025.11 116.392C1020.52 114.774 1011.93 109.274 999.673 110.29C979.763 111.938 958.899 124.293 958.899 150.417V225.817H935.135V91.1709H955.42L957.306 113.254C967.028 97.3633 983.489 86.6639 1003.47 86.6639C1015.53 86.6639 1029.81 90.8248 1035.76 93.8947Z" fill="#3D3D3D"/>
<path d="M1195 212.228L1206.07 193.26C1215.25 200.475 1235.77 206.622 1253.86 206.622C1270.6 206.622 1287.62 202.108 1287.62 187.654C1287.62 175.615 1271.96 172.425 1252.51 168.956C1218.76 162.809 1200.39 155.601 1200.39 130.485C1200.39 98.1308 1231.2 88.545 1257.37 88.545C1277.66 88.545 1296.53 94.4214 1308.95 102.706L1297.61 121.937C1287.89 115.527 1273.85 110.982 1256.56 110.982C1236.28 110.982 1225.24 117.4 1225.24 129.687C1225.24 139.032 1231.18 142.238 1255.75 146.782C1287.35 152.659 1312.46 158.001 1312.46 186.315C1312.46 214.102 1287.89 229.323 1253.59 229.323C1233.88 229.323 1208.5 222.649 1195 212.228Z" fill="#3D3D3D"/>
<path d="M1430.94 224.161C1424.3 227.246 1415.97 229.203 1405.57 229.203C1375.19 229.203 1358.24 212.755 1358.24 180.965V112.532H1331.32V90.9677H1358.27V54.6634L1381.56 50.5477V90.9677H1424.43V112.532H1381.56V180.965C1381.56 198.203 1389.51 206.547 1405.34 206.547C1411.38 206.581 1417.33 205.068 1422.62 202.153L1430.94 224.161Z" fill="#3D3D3D"/>
<path d="M753.964 224.161C747.322 227.246 738.998 229.203 728.592 229.203C698.209 229.203 681.259 212.755 681.259 180.965V112.532H654.34V90.9677H681.289V54.6634L704.58 50.5477V90.9677H747.45V112.532H704.55V180.965C704.55 198.203 712.491 206.547 728.329 206.547C734.369 206.578 740.316 205.066 745.609 202.153L753.964 224.161Z" fill="#3D3D3D"/>
</svg>
